<?xml version="1.0" standalone="no"?>
<!DOCTYPE svg PUBLIC "-//W3C//DTD SVG 20010904//EN"
 "http://www.w3.org/TR/2001/REC-SVG-20010904/DTD/svg10.dtd">
<svg version="1.0" xmlns="http://www.w3.org/2000/svg"
 width="700.000000pt" height="700.000000pt" viewBox="0 0 700.000000 700.000000"
 preserveAspectRatio="xMidYMid meet">
<metadata>
Created by potrace 1.11, written by Peter Selinger 2001-2013
</metadata>
<g transform="translate(0.000000,700.000000) scale(0.100000,-0.100000)"
fill="#000000" stroke="none">
<path d="M595 6836 c-213 -52 -394 -240 -434 -451 -9 -44 -11 -809 -9 -2920
l3 -2860 22 -59 c66 -174 195 -303 369 -369 l59 -22 2895 0 2895 0 59 22 c174
66 303 195 369 369 l22 59 0 2895 0 2895 -22 59 c-66 174 -195 303 -369 369
l-59 22 -2875 2 c-2240 1 -2886 -1 -2925 -11z m4515 -1416 l0 -420 -955 0
-955 0 0 -410 0 -410 895 0 895 0 0 -420 0 -420 -895 0 -895 0 0 -925 0 -925
-560 0 -560 0 0 2175 0 2175 1515 0 1515 0 0 -420z m-900 -2764 c47 -8 115
-23 153 -32 l67 -16 0 -160 c0 -149 -1 -160 -17 -153 -164 70 -354 110 -488
102 -163 -10 -224 -45 -232 -133 -11 -108 31 -138 261 -185 207 -43 252 -57
341 -98 138 -65 202 -150 225 -297 20 -128 -14 -291 -79 -381 -93 -128 -253
-186 -516 -186 -171 0 -283 16 -455 65 l-115 33 -3 168 -2 168 59 -31 c158
-79 314 -119 467 -120 124 0 189 18 236 67 30 31 33 40 33 91 0 110 -43 138
-300 197 -260 60 -366 111 -439 213 -51 70 -71 140 -70 252 1 238 127 391 369
444 88 20 380 15 505 -8z m1050 -606 l0 -610 343 -2 342 -3 0 -145 0 -145
-537 -3 -538 -2 0 760 0 760 195 0 195 0 0 -610z"/>
</g>
</svg>
